<svg width="31" height="30" viewBox="0 0 31 30" fill="none" xmlns="http://www.w3.org/2000/svg">
<path d="M0 14.9536L1.50876 12.9965L5.42988 16.3089L11.7654 9.23438L13.5768 10.8895L5.58222 19.6193L0 14.9536Z" fill="#E2E729"/>
<path d="M16.3781 0C9.19323 0 3.20409 5.20494 2 12.0338L5.33472 14.8487L7.66569 12.2462C8.6924 8.40495 12.2087 5.56721 16.3781 5.56721C21.351 5.56721 25.3952 9.60208 25.3952 14.5634C25.3952 19.5248 21.351 23.5597 16.3781 23.5597C12.7575 23.5597 9.63146 21.4194 8.19782 18.3401L5.68739 21.0821L2.24207 18.2027C3.86561 24.4799 9.58764 29.129 16.3802 29.129C24.429 29.129 30.9795 22.5957 30.9795 14.5634C30.9753 6.53325 24.4269 0 16.3781 0Z" fill="#FF4A86"/>
</svg>
